# xmcd
#
# Track frame offsets:
#	150
#	22351
#	35432
#	54649
#	92090
#	108970
#	136729
#	162686
#	180910
#	205973
#	229960
#	263396
#	281271
#	309818
#	327417
#
# Disc length: 4628 seconds
#
# Revision: 0
# Processed by: cddbd v1.5.2PL0 Copyright (c) Steve Scherf et al.
# Submitted via: audiograbber 1.83.01
#
DISCID=c912120f
DTITLE=Diverse - Mix 80er
DYEAR=1900
DGENRE=Pop
TTITLE0=Flash and the Pan - Midnight Train
TTITLE1=Soft Cell - Tainted Love
TTITLE2=Heaven 17 - Let me go
TTITLE3=G. Jones Slave to the Rhythm
TTITLE4=Latin Quarter - modern times
TTITLE5=Saga - Humble Stance
TTITLE6=Kate Bush - running up that hill
TTITLE7=Talking Heads - Slippery People
TTITLE8=R. Bullord - Voices
TTITLE9=Anne Clark - our darkness
TTITLE10=New Order - blue monday
TTITLE11=FGTH - relax
TTITLE12=G. Kranz - hin ha ha?
TTITLE13=Rick Springfield - human touch
TTITLE14=Big Country - look away
EXTD=
EXTT0=
EXTT1=
EXTT2=
EXTT3=
EXTT4=
EXTT5=
EXTT6=
EXTT7=
EXTT8=
EXTT9=
EXTT10=
EXTT11=
EXTT12=
EXTT13=
EXTT14=
PLAYORDER=
